HIERARCHY
ROOT root
{
	OFFSET 0.000000 0.000000 0.000000
	CHANNELS 6 Xposition Yposition Zposition Zrotation Yrotation Xrotation
	JOINT lhip
	{
		OFFSET 0.058581 -0.082280 -0.017664
		CHANNELS 3 Zrotation Yrotation Xrotation
		JOINT lknee
		{
			OFFSET 0.043451 -0.386469 0.008037
			CHANNELS 3 Zrotation Yrotation Xrotation
			JOINT lankle
			{
				OFFSET -0.014790 -0.426874 -0.037428
				CHANNELS 3 Zrotation Yrotation Xrotation
				JOINT ltoe
				{
					OFFSET 0.041054 -0.060286 0.122042
					CHANNELS 3 Zrotation Yrotation Xrotation
					End Site
					{
						OFFSET 0.000000 0.000000 0.000000
					}
				}
			}
		}
	}
	JOINT rhip
	{
		OFFSET -0.060310 -0.090513 -0.013543
		CHANNELS 3 Zrotation Yrotation Xrotation
		JOINT rknee
		{
			OFFSET -0.043257 -0.383688 -0.004843
			CHANNELS 3 Zrotation Yrotation Xrotation
			JOINT rankle
			{
				OFFSET 0.019056 -0.420046 -0.034562
				CHANNELS 3 Zrotation Yrotation Xrotation
				JOINT rtoe
				{
					OFFSET -0.034840 -0.062106 0.130323
					CHANNELS 3 Zrotation Yrotation Xrotation
					End Site
					{
						OFFSET 0.000000 0.000000 0.000000
					}
				}
			}
		}
	}
	JOINT lowerback
	{
		OFFSET 0.004439 0.124404 -0.038385
		CHANNELS 3 Zrotation Yrotation Xrotation
		JOINT upperback
		{
			OFFSET 0.004488 0.137956 0.026820
			CHANNELS 3 Zrotation Yrotation Xrotation
			JOINT chest
			{
				OFFSET -0.002265 0.056032 0.002855
				CHANNELS 3 Zrotation Yrotation Xrotation
				JOINT lowerneck
				{
					OFFSET -0.013390 0.211636 -0.033468
					CHANNELS 3 Zrotation Yrotation Xrotation
					JOINT upperneck
					{
						OFFSET 0.010113 0.088937 0.050410
						CHANNELS 3 Zrotation Yrotation Xrotation
						End Site
						{
							OFFSET 0.000000 0.000000 0.000000
						}
					}
				}
				JOINT lclavicle
				{
					OFFSET 0.071702 0.114000 -0.018898
					CHANNELS 3 Zrotation Yrotation Xrotation
					JOINT lshoulder
					{
						OFFSET 0.122921 0.045205 -0.019046
						CHANNELS 3 Zrotation Yrotation Xrotation
						JOINT lelbow
						{
							OFFSET 0.255332 -0.015649 -0.022946
							CHANNELS 3 Zrotation Yrotation Xrotation
							JOINT lwrist
							{
								OFFSET 0.265709 0.012698 -0.007375
								CHANNELS 3 Zrotation Yrotation Xrotation
								End Site
								{
									OFFSET 0.000000 0.000000 0.000000
								}
							}
						}
					}
				}
				JOINT rclavicle
				{
					OFFSET -0.082954 0.112472 -0.023707
					CHANNELS 3 Zrotation Yrotation Xrotation
					JOINT rshoulder
					{
						OFFSET -0.113228 0.046853 -0.008472
						CHANNELS 3 Zrotation Yrotation Xrotation
						JOINT relbow
						{
							OFFSET -0.260127 -0.014369 -0.031269
							CHANNELS 3 Zrotation Yrotation Xrotation
							JOINT rwrist
							{
								OFFSET -0.269108 0.006794 -0.006027
								CHANNELS 3 Zrotation Yrotation Xrotation
								End Site
								{
									OFFSET 0.000000 0.000000 0.000000
								}
							}
						}
					}
				}
			}
		}
	}
}
MOTION
Frames: 13
Frame Time: 0.033333
-0.165092 -1.831304 0.977998 162.040194 0.750317 85.026515 7.213496 1.111300 -7.574486 -6.754913 -5.813188 12.954923 -4.544173 1.213468 -11.294715 0.000000 -0.000000 0.000000 1.316295 1.955659 2.385110 -0.806198 8.651221 14.693917 -1.124425 3.018478 -25.455285 0.000000 -0.000000 0.000000 0.480625 1.528989 20.282697 1.166528 -0.971201 6.915369 1.032887 0.637492 0.967420 -2.912638 10.494584 -2.922015 0.432857 1.564865 -0.838131 -25.244709 1.481379 0.992871 -51.534038 0.862832 10.062485 12.279537 -53.079230 5.466199 -1.066029 -12.314535 -18.777039 21.283303 3.435679 6.369022 52.773466 3.443797 11.357740 -19.027083 52.723165 0.769772 6.543180 8.629739 -9.289733 
-0.164607 -1.831740 0.977837 162.324552 0.756848 84.997508 7.292777 0.948861 -7.689759 -6.861532 -5.733340 13.070725 -4.773863 1.238987 -11.333410 0.000000 -0.000000 0.000000 1.285622 1.786229 2.565645 -0.721238 8.704307 14.454391 -1.228156 2.924317 -25.410804 0.000000 -0.000000 0.000000 0.676242 1.477595 20.156316 1.176736 -0.992051 6.944786 1.032310 0.529870 1.503263 -2.813995 10.693153 -3.689640 -0.602889 2.291309 0.426264 -25.402057 1.540766 0.553260 -51.458438 0.763419 10.360609 12.168748 -52.863146 5.550461 -1.279242 -12.347665 -18.682236 21.451733 3.499324 5.850521 52.294637 3.415127 11.664974 -19.339094 52.193012 0.257920 6.819208 8.534674 -8.978890 
-0.163898 -1.831811 0.977474 162.553639 0.774937 84.914061 7.425930 1.099478 -7.731492 -7.037873 -5.555551 13.180092 -5.067306 1.105177 -11.557298 0.000000 -0.000000 0.000000 1.233848 1.569992 2.815968 -0.573315 8.897646 14.282043 -1.172959 2.882763 -25.306264 0.000000 -0.000000 0.000000 0.821037 1.480331 20.054148 1.218740 -1.112536 7.070922 1.070186 0.570895 1.439787 -2.816643 10.453095 -3.423529 -0.625632 2.569909 0.551301 -25.481950 1.288986 0.776603 -51.455588 0.874900 10.330240 12.050839 -52.674241 5.678707 -1.352978 -12.267898 -18.619342 21.497873 3.772060 5.996737 51.911010 3.188146 11.435846 -19.568424 51.716388 -0.102228 6.934237 8.473164 -8.843290 
-0.162939 -1.831361 0.977086 162.839458 0.860740 84.636815 7.616663 1.290657 -7.531964 -7.250150 -5.716620 13.383360 -5.223672 0.937342 -11.737529 0.000000 -0.000000 0.000000 1.172425 1.281383 3.591222 -0.422585 8.841592 13.537150 -1.165108 3.095990 -25.087718 0.000000 -0.000000 0.000000 1.046062 1.424021 20.006097 1.292345 -1.277708 7.230292 1.118374 0.607802 1.269650 -2.780685 10.184547 -3.013460 -0.509603 2.651375 0.605752 -25.566772 1.004782 1.067994 -51.531853 1.002688 10.268942 11.755319 -52.282465 5.989206 -1.543041 -12.246730 -18.431597 21.411622 3.926726 6.150325 51.540537 3.009610 10.994905 -19.406459 51.092614 -0.034222 7.021192 8.407479 -8.684787 
-0.162332 -1.830779 0.976969 163.018518 0.915159 84.421569 7.675312 1.342931 -7.319309 -7.288086 -5.961585 13.469064 -5.245867 0.894376 -11.816419 0.000000 -0.000000 0.000000 1.147251 1.140690 4.152175 -0.355198 8.737438 13.043436 -1.140160 3.243767 -24.952683 0.000000 -0.000000 0.000000 1.168493 1.368899 19.986937 1.337099 -1.363570 7.261236 1.142238 0.609884 1.236024 -2.728919 10.104140 -2.876223 -0.480002 2.659225 0.746961 -25.568603 0.924933 1.156122 -51.649219 1.040289 10.266791 11.491507 -51.996749 6.314487 -1.724827 -12.296411 -18.298613 21.365417 3.915699 6.161938 51.372104 2.931655 10.759690 -19.335057 50.691791 0.012780 7.113198 8.381775 -8.565533 
-0.161513 -1.829747 0.977026 163.233643 0.967105 84.146180 7.664247 1.299035 -6.993348 -7.218800 -6.358802 13.511291 -5.221707 0.949014 -11.935079 0.000000 -0.000000 0.000000 1.175703 1.046845 4.813465 -0.324110 8.737968 12.579199 -1.133496 3.260020 -24.813002 0.000000 -0.000000 0.000000 1.287772 1.310750 19.924478 1.390032 -1.459262 7.213692 1.174803 0.616368 1.238796 -2.682864 10.033000 -2.696925 -0.437188 2.688258 0.877926 -25.514558 0.872927 1.250774 -51.845188 1.098743 10.299299 11.138680 -51.654588 6.826179 -1.956521 -12.319118 -18.239403 21.334755 3.842360 6.163758 51.222357 2.777404 10.493816 -19.442500 50.155300 -0.082490 7.177739 8.314220 -8.458325 
-0.160698 -1.828668 0.977129 163.356565 0.980551 83.923096 7.600858 1.106464 -6.658609 -7.096982 -6.734732 13.483583 -5.127109 1.138162 -12.077360 0.000000 -0.000000 0.000000 1.274898 1.087816 5.277559 -0.368336 8.942524 12.376058 -1.168125 3.034102 -24.693430 0.000000 -0.000000 0.000000 1.351484 1.317075 19.773762 1.440218 -1.510470 7.202717 1.199447 0.621761 1.228931 -2.680246 9.954984 -2.591507 -0.416310 2.748055 0.886797 -25.459499 0.810526 1.359986 -52.001423 1.136911 10.348696 10.883921 -51.402028 7.213572 -2.160265 -12.277754 -18.291327 21.315135 3.764247 6.156560 51.149474 2.588313 10.286490 -19.733592 49.629460 -0.362804 7.209212 8.221865 -8.398715 
-0.160027 -1.827791 0.977081 163.443421 0.943968 83.772511 7.481468 0.854471 -6.426374 -6.970488 -7.048920 13.489511 -4.993849 1.352063 -12.233769 0.000000 -0.000000 0.000000 1.346332 1.149345 5.552252 -0.444241 9.001703 12.384449 -1.159977 2.841665 -24.720448 0.000000 -0.000000 0.000000 1.382776 1.325812 19.614119 1.462276 -1.532370 7.148966 1.196841 0.618865 1.230442 -2.701424 9.930295 -2.579499 -0.435301 2.817593 0.827964 -25.379931 0.793061 1.438924 -52.094920 1.139635 10.408764 10.685280 -51.307565 7.510376 -2.307424 -12.249376 -18.351142 21.270051 3.667200 6.137867 51.158000 2.434126 10.139975 -20.016939 49.168698 -0.662324 7.233594 8.142087 -8.379855 
-0.159441 -1.827108 0.976870 163.498776 0.890918 83.651502 7.367940 0.637243 -6.281907 -6.884182 -7.303636 13.575358 -4.847096 1.543746 -12.401204 0.000000 -0.000000 0.000000 1.419242 1.232558 5.665072 -0.516780 9.110234 12.592524 -1.154980 2.635434 -24.788106 0.000000 -0.000000 0.000000 1.426746 1.303561 19.544114 1.442103 -1.522685 7.023414 1.165063 0.621012 1.233475 -2.768233 9.940975 -2.600906 -0.459661 2.953436 0.763206 -25.306978 0.771560 1.505112 -52.117481 1.110778 10.422659 10.567399 -51.319488 7.689124 -2.332687 -12.256711 -18.396917 21.215601 3.612323 6.133945 51.187722 2.302442 10.043849 -20.198883 48.811585 -0.869788 7.281556 8.091262 -8.370850 
-0.158686 -1.826530 0.976570 163.505233 0.819992 83.487629 7.290211 0.525010 -6.088665 -6.865895 -7.563853 13.665598 -4.718425 1.707743 -12.585502 0.000000 -0.000000 0.000000 1.475855 1.310334 5.747373 -0.556812 9.313589 12.935021 -1.198472 2.439572 -24.887240 0.000000 -0.000000 0.000000 1.471633 1.257236 19.520688 1.392842 -1.491754 6.934044 1.127434 0.646837 1.249886 -2.878849 9.896058 -2.678807 -0.568593 3.085082 0.661034 -25.276223 0.684808 1.551844 -52.061867 1.031300 10.371257 10.616557 -51.408770 7.650186 -2.146211 -12.267709 -18.446669 21.152674 3.657772 6.161490 51.170062 2.201893 9.970301 -20.234313 48.555147 -0.941475 7.225796 8.050966 -8.361043 
-0.158053 -1.826262 0.976346 163.533884 0.762406 83.362841 7.279726 0.514676 -5.934414 -6.910414 -7.693329 13.686647 -4.681771 1.739710 -12.673927 0.000000 -0.000000 0.000000 1.502477 1.360036 5.864778 -0.595384 9.394112 13.093928 -1.243967 2.358609 -24.906114 0.000000 -0.000000 0.000000 1.470267 1.223889 19.460016 1.375359 -1.489827 7.009116 1.119199 0.658703 1.282727 -2.914714 9.790651 -2.741981 -0.705086 3.124371 0.646113 -25.290804 0.537901 1.569640 -52.014119 0.887517 10.306441 10.895660 -51.462150 7.297423 -1.971024 -12.236898 -18.463581 21.127004 3.779951 6.178686 51.102497 2.171025 9.964266 -20.225650 48.497075 -0.958227 7.188131 8.034352 -8.364645 
-0.157374 -1.826141 0.976179 163.588729 0.722116 83.242977 7.351575 0.610671 -5.809142 -7.040413 -7.671344 13.709574 -4.700460 1.649872 -12.693634 0.000000 -0.000000 0.000000 1.516875 1.318997 5.895952 -0.590992 9.383442 13.389578 -1.249139 2.369624 -24.867909 0.000000 -0.000000 0.000000 1.455450 1.189383 19.441120 1.373477 -1.507492 7.101950 1.115639 0.656411 1.233283 -2.964693 9.713135 -2.604615 -0.672508 3.133290 0.705734 -25.274011 0.331071 1.665216 -52.010942 0.744684 10.197767 11.283175 -51.504801 6.830701 -1.821843 -12.172284 -18.462291 21.104583 3.927427 6.264740 51.069495 2.163206 9.915493 -20.185767 48.567967 -0.880404 7.186437 8.025202 -8.367669 
-0.156578 -1.826154 0.976092 163.635782 0.685101 83.162106 7.566355 0.984490 -5.783063 -7.356441 -7.136498 13.739708 -4.871009 1.303586 -12.528804 0.000000 -0.000000 0.000000 1.501380 1.256476 5.978550 -0.569625 9.496751 13.520897 -1.257564 2.454036 -24.713431 0.000000 -0.000000 0.000000 1.408439 1.156961 19.439534 1.400475 -1.543899 7.171210 1.087962 0.664158 1.142465 -3.057918 9.708939 -2.490219 -0.700569 2.972748 0.764050 -25.269787 0.180187 1.772892 -51.936192 0.579774 10.035910 11.511820 -51.569814 6.541197 -1.792823 -12.165586 -18.412650 21.106740 3.972316 6.342823 51.107458 2.237079 9.864927 -20.114662 48.732373 -0.728710 7.259097 8.024309 -8.416352 
